{"title":"Axe Cop S01E02 Zombie Island... In Space (1920x1080)(5.1) [Phr0s","uid":8752915,"size":448084202,"categoryP":"video","categoryS":"hd___tv_shows","magnet":"?xt=urn:btih:810b619f4bfd694bdc6aee8ace97f9a4f67a5277&amp;dn=Axe+Cop+S01E02+Zombie+Island...+In+Space+%281920x1080%29%285.1%29+%5BPhr0s&amp;tr=udp%3A%2F%2Ftracker.openbittorrent.com%3A80&amp;tr=udp%3A%2F%2Fopen.demonii.com%3A1337&amp;tr=udp%3A%2F%2Ftracker.coppersurfer.tk%3A6969&amp;tr=udp%3A%2F%2Fexodus.desync.com%3A6969","seeders":1,"leechers":1,"uploader":"frostyon420","files":-1,"time":1375076433,"description":"Please Seed!!!! fixed upload\n\n\n\n\n\nComplete name                            : D:TV ShowsFoxAxe CopAxe Cop S01E02 Zombie Island... In Space (1920x1080)(5.1) [Phr0stY] .mkv\nFormat                                   : Matroska\nFormat version                           : Version 4 / Version 2\nFile size                                : 427 MiB\nDuration                                 : 10mn 30s\nOverall bit rate                         : 5 686 Kbps\nEncoded date                             : UTC 2013-07-29 02:31:39\nWriting application                      : mkvmerge v6.2.0 ('Promised Land') built on Apr 28 2013 12:22:01\nWriting library                          : libebml v1.3.0 + libmatroska v1.4.0\n\nVideo\nID                                       : 1\nFormat                                   : AVC\nFormat/Info                              : Advanced Video Codec\nFormat profile                           : &lt;a class=&quot;__cf_email__&quot; href=&quot;/cdn-cgi/l/email-protection&quot; data-cfemail=&quot;5a12333d321a166e746a&quot;&gt;[email&amp;#160;protected]&lt;/a&gt;&lt;script cf-hash='f9e31' type=&quot;text/javascript&quot;&gt;\n/* &lt;![CDATA[ */!function(){try{var t=&quot;currentScript&quot;in document?document.currentScript:function(){for(var t=document.getElementsByTagName(&quot;script&quot;),e=t.length;e--;)if(t[e].getAttribute(&quot;cf-hash&quot;))return t[e]}();if(t&amp;&amp;t.previousSibling){var e,r,n,i,c=t.previousSibling,a=c.getAttribute(&quot;data-cfemail&quot;);if(a){for(e=&quot;&quot;,r=parseInt(a.substr(0,2),16),n=2;a.length-n;n+=2)i=parseInt(a.substr(n,2),16)^r,e+=String.fromCharCode(i);e=document.createTextNode(e),c.parentNode.replaceChild(e,c)}}}catch(u){}}();/* ]]&gt; */&lt;/script&gt;\nFormat settings, CABAC                   : Yes\nFormat settings, ReFrames                : 4 frames\nCodec ID                                 : V_MPEG4/ISO/AVC\nDuration                                 : 10mn 30s\nBit rate                                 : 5 189 Kbps\nWidth                                    : 1 912 pixels\nHeight                                   : 1 072 pixels\nDisplay aspect ratio                     : 16:9\nFrame rate mode                          : Constant\nFrame rate                               : 23.976 fps\nColor space                              : YUV\nChroma subsampling                       : 4:2:0\nBit depth                                : 8 bits\nScan type                                : Progressive\nBits/(Pixel*Frame)                       : 0.106\nStream size                              : 390 MiB (91%)\nDefault                                  : Yes\nForced                                   : No\nColor primaries                          : BT.709\nTransfer characteristics                 : BT.709\nMatrix coefficients                      : BT.709\n\nAudio\nID                                       : 2\nFormat                                   : AC-3\nFormat/Info                              : Audio Coding 3\nMode extension                           : CM (complete main)\nFormat settings, Endianness              : Big\nCodec ID                                 : A_AC3\nDuration                                 : 10mn 30s\nBit rate mode                            : Constant\nBit rate                                 : 384 Kbps\nChannel(s)                               : 6 channels\nChannel positions                        : Front: L C R, Side: L R, LFE\nSampling rate                            : 48.0 KHz\nBit depth                                : 16 bits\nCompression mode                         : Lossy\nDelay relative to video                  : 13ms\nStream size                              : 28.9 MiB (7%)\nDefault                                  : Yes\nForced                                   : No\n\n","torrent":{"xt":"urn:btih:810b619f4bfd694bdc6aee8ace97f9a4f67a5277","amp;dn":"Axe+Cop+S01E02+Zombie+Island...+In+Space+%281920x1080%29%285.1%29+%5BPhr0s","amp;tr":["udp%3A%2F%2Ftracker.openbittorrent.com%3A80","udp%3A%2F%2Fopen.demonii.com%3A1337","udp%3A%2F%2Ftracker.coppersurfer.tk%3A6969","udp%3A%2F%2Fexodus.desync.com%3A6969"],"infoHash":"810b619f4bfd694bdc6aee8ace97f9a4f67a5277","infoHashBuffer":{"type":"Buffer","data":[129,11,97,159,75,253,105,75,220,106,238,138,206,151,249,164,246,122,82,119]},"announce":[],"urlList":[]}}